<?xml version="1.0" encoding="UTF-8"?>
<svg width="454px" height="383px" viewBox="0 0 454 383" version="1.1" xmlns="http://www.w3.org/2000/svg" xmlns:xlink="http://www.w3.org/1999/xlink">
    <!-- Generator: Sketch 55.1 (78136) - https://sketchapp.com -->
    <title>Logo / Vertical / Regular  Copy</title>
    <desc>Created with Sketch.</desc>
    <g id="Logo-/-Vertical-/-Regular--Copy" stroke="none" stroke-width="1" fill="none" fill-rule="evenodd">
        <path d="M130.578151,283.997623 C117.365911,291.642777 97.866198,282.585941 87.0243889,263.768698 C76.1825799,244.951456 78.1041837,223.499722 91.3157764,215.854568 L105.352487,207.733012 C98.1200803,212.813771 97.7198271,232.489057 108.561636,251.306299 C119.404093,270.123542 136.52625,279.471152 144.614213,275.875418 L130.578151,283.997623 Z M292.895771,233.935529 C303.356757,227.882493 300.163799,189.751486 278.854527,152.76605 C257.544608,115.781913 225.784714,94.1808976 215.726572,100.001573 C205.667782,105.8216 208.457897,144.185616 229.767816,181.170403 C251.077735,218.155838 282.434785,239.989213 292.895771,233.935529 Z M134.907167,219.320233 C148.002182,211.260336 179.341098,190.782176 199.052595,169.546575 C194.849289,159.944538 191.523561,148.364197 191.523561,148.364197 C181.490678,166.112455 157.678205,190.73155 132.05164,207.030481 C132.466789,211.291491 133.67273,215.625194 134.907167,219.320233 Z M296.9268,142.309214 C325.471068,191.850512 329.254043,243.212393 305.376805,257.029358 C300.152141,260.05263 294.010392,259.608681 288.170452,258.350174 C278.280054,256.219344 269.681087,250.12477 254.631439,246.996351 C231.002901,242.084345 203.632838,245.260793 179.917514,256.083044 C183.243242,260.262273 185.679735,263.040205 190.164125,267.964544 C190.543005,267.745165 190.910876,267.532277 191.267736,267.32523 C194.822735,265.265147 199.300648,265.896023 202.191797,268.819342 C203.961849,270.608122 205.822573,272.413778 207.643142,274.116234 C208.665795,275.073582 209.132757,276.489808 208.855559,277.864495 C208.744809,278.412942 208.604268,279.032135 208.428752,279.688973 C207.818657,281.971031 206.939137,284.09537 206.939137,284.09537 C214.480476,290.470983 222.04837,295.718548 229.429738,299.692678 C232.254178,301.212103 232.23151,305.268662 229.37922,306.734865 C224.025025,309.487484 218.065916,312.425731 211.49736,315.435373 C207.53304,317.252063 202.937253,317.081363 199.145858,314.925869 C186.876609,307.951833 174.100243,297.511223 161.910008,284.333571 C158.465758,280.600888 155.193138,276.813684 152.491753,273.469781 C151.219103,271.894538 150.075985,271.151376 148.35386,270.756105 C148.085082,270.709374 147.816304,270.661344 147.539106,270.600333 C147.536515,270.600333 147.533277,270.599684 147.530686,270.599035 C147.5268,270.598386 147.524209,270.596439 147.520323,270.59579 C138.88185,268.68369 126.156649,259.919575 118.035655,245.824168 C107.193845,227.006925 108.664031,205.816758 115.238416,202.01203 L130.628733,193.106422 C156.383535,178.202948 176.649428,152.963361 185.309922,126.682699 C190.129799,112.057018 189.161549,101.54696 192.264483,91.8968925 C194.096709,86.1995362 196.783198,80.6469179 202.007862,77.6236455 C225.885749,63.8066802 268.381884,92.7672678 296.9268,142.309214 Z M258.174392,194.340655 C258.174392,194.340655 251.171257,186.234027 243.63186,173.147891 C236.091816,160.062405 232.637203,149.924252 232.637203,149.924252 L249.067661,146.229862 C251.285892,145.729445 253.59933,146.592032 254.92444,148.44377 C257.893955,152.591845 260.756607,157.012521 263.446982,161.681783 C266.132176,166.342608 268.52398,171.024851 270.632757,175.661011 C271.579634,177.743162 271.173552,180.192025 269.626295,181.873713 L258.174392,194.340655 Z M357.985679,111.276601 C359.542651,113.978594 358.555619,117.436081 355.808898,118.904231 L327.633147,133.966722 C323.753023,136.211784 318.745325,134.867602 316.504426,130.978498 C314.264174,127.090043 315.605475,122.071592 319.485599,119.825881 L346.588827,102.901916 C349.230627,101.251383 352.711793,102.123705 354.268765,104.825698 L357.985679,111.276601 Z M379.970135,185.303744 C380.291374,188.407499 377.983118,191.160118 374.876946,191.377549 L343.021198,193.607683 C338.56401,194.071105 334.539458,190.796001 334.077029,186.329892 C333.615248,181.863133 336.883335,177.82994 341.339875,177.366518 L372.974772,172.997766 C376.058923,172.571341 378.882068,174.79109 379.203307,177.894195 L379.970135,185.303744 Z M301.460347,49.0489827 L307.481631,53.4170857 C310.002967,55.2467561 310.510731,58.8067925 308.601433,61.2712334 L289.015582,86.5478161 C286.38803,90.1850894 281.268935,91.006137 277.639454,88.3729432 C274.009974,85.7397495 273.190686,80.6090134 275.818238,76.9717402 L293.665773,50.4347033 C295.405384,47.8469431 298.938363,47.2193122 301.460347,49.0489827 Z" id="Shape" fill="#FF5A30"></path>
    </g>
</svg>